<svg width="500" height="300" viewBox="0 0 500 300" xmlns="http://www.w3.org/2000/svg">
  <!-- Background -->
  <rect width="500" height="300" rx="12" fill="#f8fafc" />
  
  <!-- Header -->
  <rect width="500" height="50" rx="8" fill="#1976d2" />
  <circle cx="30" cy="25" r="15" fill="#ffffff" opacity="0.8" />
  <rect x="60" y="20" width="100" height="10" rx="2" fill="#ffffff" opacity="0.8" />
  <rect x="350" y="20" width="30" height="10" rx="2" fill="#ffffff" opacity="0.6" />
  <rect x="390" y="20" width="30" height="10" rx="2" fill="#ffffff" opacity="0.6" />
  <rect x="430" y="20" width="30" height="10" rx="2" fill="#ffffff" opacity="0.6" />
  
  <!-- Sidebar -->
  <rect width="60" height="250" y="50" fill="#f1f5f9" />
  <rect x="15" y="70" width="30" height="6" rx="1" fill="#64748b" />
  <rect x="15" y="90" width="30" height="6" rx="1" fill="#64748b" />
  <rect x="15" y="110" width="30" height="6" rx="1" fill="#64748b" />
  <rect x="15" y="130" width="30" height="6" rx="1" fill="#64748b" />
  <rect x="15" y="150" width="30" height="6" rx="1" fill="#64748b" />
  
  <!-- Main Content -->
  <!-- Stats Cards -->
  <rect x="80" y="70" width="120" height="80" rx="6" fill="#ffffff" stroke="#e2e8f0" />
  <rect x="95" y="85" width="90" height="8" rx="2" fill="#94a3b8" />
  <rect x="95" y="105" width="60" height="20" rx="2" fill="#1976d2" opacity="0.8" />
  <rect x="95" y="135" width="40" height="6" rx="1" fill="#cbd5e1" />
  
  <rect x="220" y="70" width="120" height="80" rx="6" fill="#ffffff" stroke="#e2e8f0" />
  <rect x="235" y="85" width="90" height="8" rx="2" fill="#94a3b8" />
  <rect x="235" y="105" width="60" height="20" rx="2" fill="#10b981" opacity="0.8" />
  <rect x="235" y="135" width="40" height="6" rx="1" fill="#cbd5e1" />
  
  <rect x="360" y="70" width="120" height="80" rx="6" fill="#ffffff" stroke="#e2e8f0" />
  <rect x="375" y="85" width="90" height="8" rx="2" fill="#94a3b8" />
  <rect x="375" y="105" width="60" height="20" rx="2" fill="#f59e0b" opacity="0.8" />
  <rect x="375" y="135" width="40" height="6" rx="1" fill="#cbd5e1" />
  
  <!-- Chart -->
  <rect x="80" y="170" width="240" height="160" rx="6" fill="#ffffff" stroke="#e2e8f0" />
  <rect x="95" y="185" width="120" height="8" rx="2" fill="#94a3b8" />
  
  <!-- Chart Lines -->
  <polyline points="95,280 120,250 145,260 170,230 195,240 220,210 245,220 270,200 295,210" 
            fill="none" stroke="#1976d2" stroke-width="2" />
  <polyline points="95,280 120,270 145,265 170,255 195,260 220,240 245,245 270,235 295,230" 
            fill="none" stroke="#10b981" stroke-width="2" />
  
  <!-- Chart Dots -->
  <circle cx="120" cy="250" r="3" fill="#1976d2" />
  <circle cx="145" cy="260" r="3" fill="#1976d2" />
  <circle cx="170" cy="230" r="3" fill="#1976d2" />
  <circle cx="195" cy="240" r="3" fill="#1976d2" />
  <circle cx="220" cy="210" r="3" fill="#1976d2" />
  <circle cx="245" cy="220" r="3" fill="#1976d2" />
  <circle cx="270" cy="200" r="3" fill="#1976d2" />
  <circle cx="295" cy="210" r="3" fill="#1976d2" />
  
  <circle cx="120" cy="270" r="3" fill="#10b981" />
  <circle cx="145" cy="265" r="3" fill="#10b981" />
  <circle cx="170" cy="255" r="3" fill="#10b981" />
  <circle cx="195" cy="260" r="3" fill="#10b981" />
  <circle cx="220" cy="240" r="3" fill="#10b981" />
  <circle cx="245" cy="245" r="3" fill="#10b981" />
  <circle cx="270" cy="235" r="3" fill="#10b981" />
  <circle cx="295" cy="230" r="3" fill="#10b981" />
  
  <!-- Table -->
  <rect x="340" y="170" width="140" height="160" rx="6" fill="#ffffff" stroke="#e2e8f0" />
  <rect x="355" y="185" width="110" height="8" rx="2" fill="#94a3b8" />
  
  <!-- Table Rows -->
  <rect x="355" y="205" width="110" height="1" fill="#e2e8f0" />
  <rect x="355" y="215" width="70" height="6" rx="1" fill="#64748b" />
  <rect x="435" y="215" width="30" height="6" rx="1" fill="#64748b" />
  
  <rect x="355" y="235" width="110" height="1" fill="#e2e8f0" />
  <rect x="355" y="245" width="70" height="6" rx="1" fill="#64748b" />
  <rect x="435" y="245" width="30" height="6" rx="1" fill="#64748b" />
  
  <rect x="355" y="265" width="110" height="1" fill="#e2e8f0" />
  <rect x="355" y="275" width="70" height="6" rx="1" fill="#64748b" />
  <rect x="435" y="275" width="30" height="6" rx="1" fill="#64748b" />
  
  <rect x="355" y="295" width="110" height="1" fill="#e2e8f0" />
  <rect x="355" y="305" width="70" height="6" rx="1" fill="#64748b" />
  <rect x="435" y="305" width="30" height="6" rx="1" fill="#64748b" />
</svg> 